<?xml version="1.0" encoding="utf-8"?>
<!-- Generator: Adobe Illustrator 27.2.0, SVG Export Plug-In . SVG Version: 6.00 Build 0)  -->
<svg version="1.1" id="Layer_1" xmlns="http://www.w3.org/2000/svg" xmlns:xlink="http://www.w3.org/1999/xlink" x="0px" y="0px"
	 viewBox="0 0 40 40" style="enable-background:new 0 0 40 40;" xml:space="preserve">
<style type="text/css">
	.st0{fill:#ECECED;}
	.st1{fill:none;stroke:#FFFFFF;stroke-width:2;}
	.st2{fill:none;stroke:#E6E6E6;}
	.st3{fill:#FFFFFF;}
	.st4{fill:none;stroke:#ECECED;}
	.st5{opacity:3.000000e-02;fill:#0A090B;enable-background:new    ;}
	.st6{fill:#266DF0;}
	.st7{fill:none;stroke:#FFFFFF;}
	.st8{fill:#0A090B;}
	.st9{fill:#E6E6E6;}
</style>
<g>
	<path class="st0" d="M6,0h28c3.3,0,6,2.7,6,6v28c0,3.3-2.7,6-6,6H6c-3.3,0-6-2.7-6-6V6C0,2.7,2.7,0,6,0z"/>
	<path class="st1" d="M6,1h28c2.8,0,5,2.2,5,5v28c0,2.8-2.2,5-5,5H6c-2.8,0-5-2.2-5-5V6C1,3.2,3.2,1,6,1z"/>
</g>
<path class="st2" d="M9,38V2"/>
<path class="st2" d="M31,38V2"/>
<path class="st2" d="M2,10h36"/>
<path class="st2" d="M2,31h36"/>
<g>
	<path class="st3" d="M10,8.8h20c1.1,0,2,0.9,2,2V30c0,1.1-0.9,2-2,2H10c-1.1,0-2-0.9-2-2V10.8C8,9.7,8.9,8.8,10,8.8z"/>
	<path class="st4" d="M10,9.3h20c0.8,0,1.5,0.7,1.5,1.5V30c0,0.8-0.7,1.5-1.5,1.5H10c-0.8,0-1.5-0.7-1.5-1.5V10.8
		C8.5,10,9.2,9.3,10,9.3z"/>
</g>
<path class="st5" d="M8.8,10.6c0-0.6,0.4-1,1-1H15c0.6,0,1,0.4,1,1v20.6H8.8V10.6z"/>
<g>
	<path class="st6" d="M23.3,24.1l4,10.6l2.1-4.5l4.5-2.1L23.3,24.1z"/>
	<path class="st7" d="M23.3,24.1l4,10.6l2.1-4.5l4.5-2.1L23.3,24.1z"/>
</g>
<path class="st8" d="M19.2,12.8h7.2c0.4,0,0.8,0.4,0.8,0.8v0c0,0.4-0.4,0.8-0.8,0.8h-7.2c-0.4,0-0.8-0.4-0.8-0.8v0
	C18.4,13.2,18.8,12.8,19.2,12.8z"/>
<path class="st9" d="M19.2,16H24c0.4,0,0.8,0.4,0.8,0.8v0c0,0.4-0.4,0.8-0.8,0.8h-4.8c-0.4,0-0.8-0.4-0.8-0.8v0
	C18.4,16.4,18.8,16,19.2,16z"/>
<path class="st9" d="M19.2,23.2H28c0.4,0,0.8,0.4,0.8,0.8v0c0,0.4-0.4,0.8-0.8,0.8h-8.8c-0.4,0-0.8-0.4-0.8-0.8v0
	C18.4,23.6,18.8,23.2,19.2,23.2z"/>
</svg>
