<svg width="17" height="18" viewBox="0 0 17 18" fill="none" xmlns="http://www.w3.org/2000/svg">
<path fill-rule="evenodd" clip-rule="evenodd" d="M8.461 0.937501H8.539C9.21286 0.937479 9.77477 0.93746 10.2209 0.997435C10.6917 1.06074 11.1168 1.19999 11.4584 1.54159C11.8 1.8832 11.9393 2.3083 12.0026 2.77914C12.0469 3.10884 12.0584 3.50182 12.0615 3.95649C12.5478 3.97211 12.9814 4.00055 13.3668 4.05235C14.2461 4.17057 14.9578 4.41966 15.5191 4.98093C16.0803 5.54221 16.3294 6.25392 16.4476 7.13323C16.5625 7.98765 16.5625 9.07937 16.5625 10.4577V10.5423C16.5625 11.9206 16.5625 13.0124 16.4476 13.8668C16.3294 14.7461 16.0803 15.4578 15.5191 16.0191C14.9578 16.5803 14.2461 16.8294 13.3668 16.9477C12.5124 17.0625 11.4206 17.0625 10.0423 17.0625H6.95769C5.57937 17.0625 4.48764 17.0625 3.63323 16.9477C2.75392 16.8294 2.04221 16.5803 1.48093 16.0191C0.91966 15.4578 0.670572 14.7461 0.552351 13.8668C0.437479 13.0124 0.437488 11.9206 0.4375 10.5423V10.4577C0.437488 9.07937 0.437479 7.98764 0.552351 7.13323C0.670572 6.25392 0.91966 5.54221 1.48093 4.98093C2.04221 4.41966 2.75392 4.17057 3.63323 4.05235C4.01856 4.00055 4.45216 3.97211 4.93855 3.95649C4.94155 3.50182 4.95311 3.10884 4.99743 2.77914C5.06074 2.3083 5.19999 1.8832 5.54159 1.54159C5.88319 1.19999 6.3083 1.06074 6.77914 0.997435C7.22523 0.93746 7.78714 0.937479 8.461 0.937501ZM6.06385 3.93883C6.34745 3.9375 6.6452 3.9375 6.95769 3.9375H10.0423C10.3548 3.9375 10.6526 3.9375 10.9362 3.93883C10.933 3.51109 10.9225 3.18844 10.8876 2.92905C10.8411 2.58295 10.7607 2.43483 10.6629 2.33709C10.5652 2.23935 10.4171 2.15893 10.071 2.1124C9.70868 2.0637 9.22301 2.0625 8.5 2.0625C7.77699 2.0625 7.29132 2.0637 6.92904 2.1124C6.58295 2.15893 6.43482 2.23935 6.33709 2.33709C6.23935 2.43483 6.15893 2.58295 6.1124 2.92905C6.07753 3.18844 6.06701 3.51109 6.06385 3.93883ZM3.78314 5.16732C3.02857 5.26877 2.59384 5.45902 2.27643 5.77643C1.95902 6.09384 1.76877 6.52857 1.66732 7.28314C1.5637 8.05389 1.5625 9.06989 1.5625 10.5C1.5625 11.9301 1.5637 12.9461 1.66732 13.7169C1.76877 14.4714 1.95902 14.9062 2.27643 15.2236C2.59383 15.541 3.02857 15.7312 3.78314 15.8327C4.55388 15.9363 5.56988 15.9375 7 15.9375H10C11.4301 15.9375 12.4461 15.9363 13.2169 15.8327C13.9714 15.7312 14.4062 15.541 14.7236 15.2236C15.041 14.9062 15.2312 14.4714 15.3327 13.7169C15.4363 12.9461 15.4375 11.9301 15.4375 10.5C15.4375 9.06989 15.4363 8.05389 15.3327 7.28314C15.2312 6.52857 15.041 6.09384 14.7236 5.77643C14.4062 5.45902 13.9714 5.26877 13.2169 5.16732C12.4461 5.0637 11.4301 5.0625 10 5.0625H7C5.56989 5.0625 4.55388 5.0637 3.78314 5.16732Z" fill="#4D4D4D"/>
<path d="M12.25 6.75C12.25 7.16422 11.9142 7.5 11.5 7.5C11.0858 7.5 10.75 7.16422 10.75 6.75C10.75 6.33579 11.0858 6 11.5 6C11.9142 6 12.25 6.33579 12.25 6.75Z" fill="#4D4D4D"/>
<path d="M6.25 6.75C6.25 7.16422 5.91421 7.5 5.5 7.5C5.08579 7.5 4.75 7.16422 4.75 6.75C4.75 6.33579 5.08579 6 5.5 6C5.91421 6 6.25 6.33579 6.25 6.75Z" fill="#4D4D4D"/>
</svg>
