<svg width="12" height="17" viewBox="0 0 12 17" fill="none" xmlns="http://www.w3.org/2000/svg">
<path fill-rule="evenodd" clip-rule="evenodd" d="M6 0.9375C4.03249 0.9375 2.4375 2.53249 2.4375 4.5C2.4375 6.46751 4.03249 8.0625 6 8.0625C7.96751 8.0625 9.5625 6.46751 9.5625 4.5C9.5625 2.53249 7.96751 0.9375 6 0.9375ZM3.5625 4.5C3.5625 3.15381 4.65381 2.0625 6 2.0625C7.34619 2.0625 8.4375 3.15381 8.4375 4.5C8.4375 5.84619 7.34619 6.9375 6 6.9375C4.65381 6.9375 3.5625 5.84619 3.5625 4.5Z" fill="#2A2A2A"/>
<path fill-rule="evenodd" clip-rule="evenodd" d="M6 9.1875C4.4705 9.1875 3.05814 9.54056 2.00861 10.1403C0.974998 10.7309 0.1875 11.6326 0.1875 12.75C0.1875 13.8674 0.974998 14.7691 2.00861 15.3597C3.05814 15.9594 4.4705 16.3125 6 16.3125C7.5295 16.3125 8.94186 15.9594 9.99139 15.3597C11.025 14.7691 11.8125 13.8674 11.8125 12.75C11.8125 11.6326 11.025 10.7309 9.99139 10.1403C8.94186 9.54056 7.5295 9.1875 6 9.1875ZM1.3125 12.75C1.3125 12.2105 1.70025 11.6122 2.56677 11.1171C3.41737 10.631 4.63001 10.3125 6 10.3125C7.36999 10.3125 8.58263 10.631 9.43323 11.1171C10.2997 11.6122 10.6875 12.2105 10.6875 12.75C10.6875 13.2895 10.2997 13.8878 9.43323 14.3829C8.58263 14.869 7.36999 15.1875 6 15.1875C4.63001 15.1875 3.41737 14.869 2.56677 14.3829C1.70025 13.8878 1.3125 13.2895 1.3125 12.75Z" fill="#2A2A2A"/>
</svg>
