<?xml version="1.0" encoding="UTF-8"?><svg id="Layer_2" xmlns="http://www.w3.org/2000/svg" viewBox="0 0 1779.57 2244.75"><defs><style>.cls-1{fill:none;stroke:#000;stroke-linecap:round;stroke-linejoin:round;stroke-width:20px;}</style></defs><g id="_490"><g><path class="cls-1" d="m1092.04,1501.59c0-111.7-90.55-202.25-202.25-202.25s-202.25,90.55-202.25,202.25c0,63.85,29.62,120.76,75.84,157.83v196.1h252.81v-196.1c46.22-37.07,75.84-93.98,75.84-157.83Z"/><path class="cls-1" d="m137.85,920.12h1503.87c70.56,0,127.85,57.29,127.85,127.85v1058.92c0,70.56-57.29,127.85-127.85,127.85H137.86c-70.57,0-127.86-57.29-127.86-127.86v-1058.92c0-70.56,57.29-127.85,127.85-127.85Z"/><path class="cls-1" d="m212.25,687.54c0-77.93,13.16-152.79,37.37-222.48C341.67,200.15,593.53,10,889.79,10h0c374.19,0,677.54,303.34,677.54,677.54v232.59H212.25"/></g></g></svg>