<svg width="156" height="40" viewBox="0 0 156 40" fill="none" xmlns="http://www.w3.org/2000/svg">
<path d="M13.6208 11.1375H17.8163V28.1804C17.8163 30.9492 16.9672 33.0617 15.269 34.5179C13.5198 35.9924 11.3472 36.7648 9.12533 36.7019C7.48447 36.7391 5.85868 36.3587 4.3806 35.5916C3.04405 34.8812 1.94492 33.7431 1.23429 32.3337L4.89669 30.0778C5.74014 31.7482 7.19417 32.5837 9.25876 32.5842C10.4212 32.6551 11.5648 32.2452 12.4552 31.4386C13.2319 30.674 13.6205 29.5879 13.6208 28.1803V26.2468C12.3557 28.0611 10.5797 28.9682 8.29292 28.968C7.18883 28.9948 6.09187 28.7712 5.07356 28.3116C4.05525 27.8519 3.13845 27.1667 2.38294 26.3006C1.60486 25.4415 0.993608 24.4245 0.584823 23.3088C0.176038 22.1931 -0.0221019 21.0011 0.00195534 19.8022C-0.0184461 18.6049 0.183015 17.4152 0.594595 16.3025C1.00617 15.1898 1.61963 14.1764 2.39921 13.3212C3.15108 12.4536 4.06453 11.766 5.08002 11.3034C6.09552 10.8407 7.19027 10.6133 8.29296 10.636C10.5792 10.636 12.3552 11.5431 13.6208 13.3573V11.1375ZM5.6126 23.3291C6.05612 23.7882 6.58088 24.1467 7.15573 24.3836C7.73059 24.6204 8.34382 24.7306 8.95905 24.7078C9.57432 24.7305 10.1876 24.6201 10.7625 24.3833C11.3373 24.1465 11.8622 23.788 12.3059 23.3291C12.7408 22.8716 13.0823 22.3217 13.3087 21.7145C13.535 21.1073 13.6413 20.456 13.6208 19.8022C13.639 19.154 13.5315 18.5088 13.3051 17.9077C13.0788 17.3066 12.7384 16.7628 12.3059 16.3109C11.8621 15.8522 11.3372 15.4938 10.7624 15.2571C10.1875 15.0203 9.57425 14.9101 8.95901 14.9327C8.34383 14.9099 7.73064 15.0201 7.1558 15.2568C6.58097 15.4936 6.0562 15.852 5.6126 16.3109C5.17996 16.7628 4.8396 17.3066 4.61321 17.9077C4.38682 18.5088 4.27936 19.154 4.29769 19.8022C4.27703 20.4561 4.38329 21.1073 4.60968 21.7146C4.83608 22.3218 5.17764 22.8717 5.6126 23.3291Z" fill="#111111"/>
<path d="M35.8977 26.803C35.0822 27.6932 34.1065 28.3952 33.0301 28.866C31.9537 29.3369 30.7994 29.5668 29.6375 29.5417C28.4798 29.555 27.3311 29.3196 26.2591 28.8493C25.187 28.379 24.213 27.6833 23.3943 26.803C22.5755 25.9226 21.9285 24.8754 21.4911 23.7226C21.0537 22.5698 20.8347 21.3347 20.8471 20.0898C20.8348 18.8448 21.0538 17.6097 21.4912 16.4569C21.9286 15.3041 22.5756 14.2568 23.3944 13.3764C24.2131 12.496 25.187 11.8002 26.2591 11.3298C27.3311 10.8594 28.4797 10.6239 29.6375 10.637C30.7971 10.6231 31.9476 10.8578 33.0219 11.3275C34.0961 11.7972 35.0725 12.4924 35.894 13.3725C36.7155 14.2525 37.3657 15.2999 37.8065 16.4532C38.2472 17.6066 38.4698 18.8428 38.4612 20.0898C38.485 21.338 38.2697 22.5781 37.8287 23.733C37.3877 24.8879 36.7304 25.9329 35.8977 26.803ZM26.4242 23.6342C26.8415 24.0924 27.3423 24.4529 27.8953 24.6931C28.4482 24.9334 29.0414 25.0482 29.6375 25.0304C30.236 25.047 30.8314 24.9317 31.3869 24.6916C31.9424 24.4515 32.4463 24.0917 32.8675 23.6342C33.2974 23.1699 33.6343 22.6159 33.8575 22.0063C34.0808 21.3968 34.1857 20.7445 34.1659 20.0898C34.1858 19.4349 34.0809 18.7826 33.8576 18.1729C33.6343 17.5633 33.2974 17.0092 32.8675 16.5448C32.4463 16.0874 31.9424 15.7275 31.3869 15.4873C30.8314 15.2471 30.2361 15.1318 29.6375 15.1483C29.0414 15.1306 28.4482 15.2455 27.8952 15.4858C27.3423 15.7261 26.8415 16.0866 26.4242 16.5448C25.9988 17.0119 25.666 17.5669 25.4457 18.1761C25.2254 18.7854 25.1222 19.4364 25.1424 20.0898C25.1222 20.743 25.2254 21.3939 25.4457 22.0031C25.666 22.6123 25.9989 23.1672 26.4242 23.6342Z" fill="#111111"/>
<path d="M50.649 15.5769H46.8863V23.024C46.8659 23.2708 46.8939 23.5194 46.9684 23.7538C47.043 23.9882 47.1624 24.2032 47.3191 24.3848C47.676 24.6989 48.1234 24.8697 48.5846 24.868C49.2725 24.9035 49.9617 24.8976 50.649 24.8505V29.0392C47.6966 29.3976 45.6154 29.0993 44.4054 28.1446C43.1954 27.1898 42.5906 25.483 42.591 23.024V15.5769H39.6942V11.1372H42.591V7.5207L46.8863 6.12424V11.137H50.649V15.5769Z" fill="#111111"/>
<path d="M55.8076 8.98828C55.4625 8.99123 55.1204 8.91807 54.8026 8.77331C54.4847 8.62855 54.1979 8.41527 53.9597 8.14664C53.7098 7.89055 53.5114 7.58209 53.3768 7.24032C53.2422 6.89854 53.1742 6.53071 53.177 6.15955C53.1752 5.78584 53.2436 5.41559 53.3781 5.071C53.5126 4.7264 53.7104 4.41456 53.9597 4.15416C54.1955 3.88105 54.4816 3.66363 54.7997 3.51567C55.1178 3.36772 55.461 3.29247 55.8076 3.2947C56.1594 3.29005 56.5082 3.36405 56.832 3.512C57.1558 3.65995 57.4474 3.87862 57.6885 4.15416C57.9376 4.41466 58.1354 4.72652 58.2699 5.07109C58.4045 5.41565 58.473 5.78585 58.4714 6.15955C58.474 6.5307 58.4059 6.89848 58.2712 7.24023C58.1365 7.58197 57.9382 7.89045 57.6885 8.14664C57.4451 8.41765 57.1526 8.63215 56.8291 8.7769C56.5056 8.92166 56.158 8.9936 55.8076 8.98828ZM53.6767 11.1363H57.9721V29.0386H53.6767V11.1363Z" fill="#111111"/>
<path d="M71.5909 10.6368C72.6748 10.6253 73.7483 10.8638 74.7392 11.3363C75.7301 11.8089 76.6152 12.5043 77.3349 13.3759C78.9178 15.1905 79.7728 17.602 79.7152 20.0892C79.7728 22.5763 78.9177 24.9878 77.3349 26.8024C76.6153 27.6741 75.7301 28.3696 74.7393 28.8421C73.7484 29.3146 72.6748 29.5531 71.5909 29.5415C69.2603 29.5415 67.4624 28.6702 66.197 26.9275V36.2013H61.9012V11.1378H66.197V13.2506C67.4621 11.5085 69.2601 10.6373 71.5909 10.6368ZM67.4953 23.7231C67.9246 24.1902 68.439 24.5569 69.0063 24.8003C69.5735 25.0436 70.1814 25.1584 70.7918 25.1374C71.4046 25.1572 72.0146 25.042 72.5844 24.7987C73.1542 24.5555 73.6716 24.1894 74.1049 23.7231C74.543 23.2457 74.8857 22.6771 75.1119 22.0522C75.3382 21.4272 75.4432 20.7592 75.4206 20.089C75.4431 19.4188 75.338 18.7507 75.1118 18.1258C74.8855 17.5009 74.5429 16.9323 74.1049 16.4549C73.6716 15.9886 73.1541 15.6226 72.5844 15.3794C72.0146 15.1361 71.4046 15.0208 70.7918 15.0405C70.1814 15.0196 69.5736 15.1344 69.0063 15.3778C68.4391 15.6212 67.9247 15.9878 67.4953 16.4549C67.0619 16.9349 66.7233 17.5044 66.5002 18.129C66.277 18.7536 66.1739 19.4203 66.197 20.089C66.1738 20.7576 66.2769 21.4244 66.5001 22.049C66.7232 22.6736 67.0618 23.2431 67.4953 23.7231Z" fill="#111111"/>
<path d="M95.4033 11.1377H99.6987V29.0403H95.4033V26.9278C94.1153 28.6704 92.3061 29.5418 89.9756 29.5418C88.8969 29.5508 87.829 29.311 86.8439 28.8385C85.8588 28.3659 84.9794 27.6717 84.265 26.8027C82.6818 24.9882 81.8266 22.5764 81.8845 20.089C81.8266 17.6018 82.6819 15.1901 84.2652 13.3757C84.9796 12.5067 85.859 11.8126 86.8441 11.3401C87.8292 10.8676 88.8971 10.6277 89.9757 10.6367C92.3066 10.6367 94.1158 11.508 95.4035 13.2507L95.4033 11.1377ZM87.4781 23.7231C87.9074 24.1902 88.4218 24.5569 88.989 24.8002C89.5563 25.0436 90.1641 25.1584 90.7746 25.1375C91.3874 25.1574 91.9975 25.0422 92.5673 24.7989C93.1372 24.5557 93.6546 24.1896 94.0879 23.7231C94.5259 23.2457 94.8686 22.6771 95.0949 22.0522C95.3211 21.4273 95.4261 20.7592 95.4035 20.089C95.426 19.4188 95.321 18.7508 95.0947 18.1258C94.8685 17.5009 94.5259 16.9323 94.0879 16.4549C93.6546 15.9885 93.1371 15.6224 92.5673 15.3792C91.9975 15.136 91.3874 15.0207 90.7746 15.0406C90.1642 15.0197 89.5563 15.1345 88.9891 15.3779C88.4218 15.6212 87.9074 15.9879 87.4781 16.4549C87.0446 16.9349 86.7061 17.5044 86.4829 18.129C86.2598 18.7536 86.1566 19.4204 86.1797 20.089C86.1565 20.7577 86.2597 21.4244 86.4828 22.049C86.706 22.6736 87.0445 23.2431 87.4781 23.7231Z" fill="#111111"/>
<path d="M113.11 15.5769H109.347V23.024C109.327 23.2708 109.355 23.5194 109.429 23.7538C109.504 23.9881 109.623 24.2031 109.78 24.3848C110.137 24.6988 110.584 24.8696 111.045 24.868C111.733 24.9035 112.422 24.8976 113.11 24.8505V29.0392C110.157 29.3976 108.076 29.0993 106.866 28.1446C105.656 27.1898 105.052 25.483 105.052 23.024V15.5769H102.155V11.1372H105.052V7.5207L109.347 6.12424V11.137H113.11L113.11 15.5769Z" fill="#111111"/>
<path d="M125.402 10.636C126.24 10.6088 127.074 10.7699 127.851 11.109C128.628 11.4481 129.33 11.9577 129.914 12.6053C131.101 13.9181 131.695 15.7323 131.695 18.0476V29.0397H127.4V18.6205C127.432 18.1222 127.368 17.6222 127.213 17.1512C127.059 16.6802 126.816 16.2481 126.501 15.8814C126.181 15.5587 125.803 15.3084 125.392 15.1454C124.98 14.9824 124.542 14.91 124.104 14.9325C123.612 14.9083 123.122 14.9944 122.663 15.1855C122.204 15.3766 121.788 15.6685 121.44 16.0424C120.773 16.7829 120.44 17.8929 120.441 19.3725V29.0397H116.146V3.97626H120.441V13.1424C121.484 11.472 123.138 10.6365 125.402 10.636Z" fill="#111111"/>
<mask id="mask0_37_749" style="mask-type:luminance" maskUnits="userSpaceOnUse" x="132" y="0" width="24" height="21">
<path d="M132.945 0L155.852 20.0018L146.386 0H132.945Z" fill="white"/>
</mask>
<g mask="url(#mask0_37_749)">
<path d="M148.022 -11.6828L124.117 6.82935L140.762 31.681L164.666 13.1689L148.022 -11.6828Z" fill="url(#paint0_linear_37_749)"/>
</g>
<mask id="mask1_37_749" style="mask-type:luminance" maskUnits="userSpaceOnUse" x="132" y="20" width="15" height="20">
<path d="M132.945 39.9993H146.386L142.412 20.0011L132.945 39.9993Z" fill="white"/>
</mask>
<g mask="url(#mask1_37_749)">
<path d="M135.571 14.272L125.569 36.0925L143.758 45.7324L153.76 23.9119L135.571 14.272Z" fill="url(#paint1_linear_37_749)"/>
</g>
<mask id="mask2_37_749" style="mask-type:luminance" maskUnits="userSpaceOnUse" x="132" y="0" width="24" height="40">
<path d="M142.412 20.0018L146.386 40L155.852 20.0018L132.945 0L142.412 20.0018Z" fill="white"/>
</mask>
<g mask="url(#mask2_37_749)">
<path d="M139.205 -10.9849L116.357 29.0535L149.58 50.9757L172.429 10.9373L139.205 -10.9849Z" fill="url(#paint2_linear_37_749)"/>
</g>
<defs>
<linearGradient id="paint0_linear_37_749" x1="138.741" y1="1.56371" x2="153.838" y2="21.0587" gradientUnits="userSpaceOnUse">
<stop stop-color="#01DAED"/>
<stop offset="0.3632" stop-color="#018EF3"/>
<stop offset="1" stop-color="#0100FD"/>
</linearGradient>
<linearGradient id="paint1_linear_37_749" x1="134.606" y1="41.0868" x2="144.828" y2="21.7999" gradientUnits="userSpaceOnUse">
<stop stop-color="#01DAED"/>
<stop offset="0.3632" stop-color="#018EF3"/>
<stop offset="1" stop-color="#0100FD"/>
</linearGradient>
<linearGradient id="paint2_linear_37_749" x1="154.084" y1="26.4144" x2="130.072" y2="12.7113" gradientUnits="userSpaceOnUse">
<stop stop-color="#FF8650"/>
<stop offset="0.0776" stop-color="#F55A65"/>
<stop offset="0.1954" stop-color="#E71B82"/>
<stop offset="0.2514" stop-color="#E1038E"/>
<stop offset="0.3539" stop-color="#DC048E"/>
<stop offset="0.4788" stop-color="#CD0690"/>
<stop offset="0.6153" stop-color="#B40992"/>
<stop offset="0.7601" stop-color="#920D95"/>
<stop offset="0.9098" stop-color="#661399"/>
<stop offset="1" stop-color="#48179C"/>
</linearGradient>
</defs>
</svg>
